<svg width="36" height="36" viewBox="0 0 36 36" fill="none" xmlns="http://www.w3.org/2000/svg">
<path d="M6.75 16.25C6.11719 16.25 5.57812 16.4727 5.13281 16.918C4.71094 17.3398 4.5 17.8672 4.5 18.5C4.5 19.1328 4.71094 19.6719 5.13281 20.1172C5.57812 20.5391 6.11719 20.75 6.75 20.75C7.38281 20.75 7.91016 20.5391 8.33203 20.1172C8.77734 19.6719 9 19.1328 9 18.5C9 17.8672 8.77734 17.3398 8.33203 16.918C7.91016 16.4727 7.38281 16.25 6.75 16.25ZM18 16.25C17.3672 16.25 16.8281 16.4727 16.3828 16.918C15.9609 17.3398 15.75 17.8672 15.75 18.5C15.75 19.1328 15.9609 19.6719 16.3828 20.1172C16.8281 20.5391 17.3672 20.75 18 20.75C18.6328 20.75 19.1602 20.5391 19.582 20.1172C20.0273 19.6719 20.25 19.1328 20.25 18.5C20.25 17.8672 20.0273 17.3398 19.582 16.918C19.1602 16.4727 18.6328 16.25 18 16.25ZM29.25 16.25C28.6172 16.25 28.0781 16.4727 27.6328 16.918C27.2109 17.3398 27 17.8672 27 18.5C27 19.1328 27.2109 19.6719 27.6328 20.1172C28.0781 20.5391 28.6172 20.75 29.25 20.75C29.8828 20.75 30.4102 20.5391 30.832 20.1172C31.2773 19.6719 31.5 19.1328 31.5 18.5C31.5 17.8672 31.2773 17.3398 30.832 16.918C30.4102 16.4727 29.8828 16.25 29.25 16.25Z" fill="#949494"/>
</svg>
