<svg width="24" height="24" viewBox="0 0 24 24" fill="none" xmlns="http://www.w3.org/2000/svg">
<path d="M17.8645 16.3208H17.0515L16.7633 16.0429C17.7719 14.8696 18.3791 13.3465 18.3791 11.6895C18.3791 7.99485 15.3842 5 11.6895 5C7.99485 5 5 7.99485 5 11.6895C5 15.3842 7.99485 18.3791 11.6895 18.3791C13.3465 18.3791 14.8696 17.7719 16.0429 16.7633L16.3208 17.0515V17.8645L21.4666 23L23 21.4666L17.8645 16.3208ZM11.6895 16.3208C9.12693 16.3208 7.05832 14.2521 7.05832 11.6895C7.05832 9.12693 9.12693 7.05832 11.6895 7.05832C14.2521 7.05832 16.3208 9.12693 16.3208 11.6895C16.3208 14.2521 14.2521 16.3208 11.6895 16.3208Z" fill="#949494"/>
</svg>
