<svg width="18" height="22" viewBox="0 0 18 22" fill="none" xmlns="http://www.w3.org/2000/svg">
<path d="M13.2573 1V4.47824H17.022" stroke="#778CA2" stroke-linecap="round" stroke-linejoin="round"/>
<path d="M17.022 20.3043C17.022 20.6522 16.6455 21 16.269 21H1.77491C1.39844 21 1.02197 20.6522 1.02197 20.3043V1.69565C1.02197 1.34783 1.39844 1 1.77491 1H13.2573C13.4455 1 13.5396 1.08696 13.7279 1.17391L16.8337 4.04348C17.022 4.13043 17.022 4.30435 17.022 4.47826V20.3043Z" stroke="#778CA2" stroke-linecap="round" stroke-linejoin="round"/>
<path d="M6.7631 9.69556H3.93958V12.3042H6.7631V9.69556Z" stroke="#778CA2" stroke-linecap="round" stroke-linejoin="round"/>
<path d="M6.7631 7.08691H3.93958V9.69559H6.7631V7.08691Z" stroke="#778CA2" stroke-linecap="round" stroke-linejoin="round"/>
<path d="M6.7631 12.3044H3.93958V14.9131H6.7631V12.3044Z" stroke="#778CA2" stroke-linecap="round" stroke-linejoin="round"/>
<path d="M6.7631 14.9131H3.93958V17.5218H6.7631V14.9131Z" stroke="#778CA2" stroke-linecap="round" stroke-linejoin="round"/>
<path d="M10.4338 9.69556H6.66907V12.3042H10.4338V9.69556Z" stroke="#778CA2" stroke-linecap="round" stroke-linejoin="round"/>
<path d="M10.4338 7.08691H6.66907V9.69559H10.4338V7.08691Z" stroke="#778CA2" stroke-linecap="round" stroke-linejoin="round"/>
<path d="M10.4338 12.3044H6.66907V14.9131H10.4338V12.3044Z" stroke="#778CA2" stroke-linecap="round" stroke-linejoin="round"/>
<path d="M10.4338 14.9131H6.66907V17.5218H10.4338V14.9131Z" stroke="#778CA2" stroke-linecap="round" stroke-linejoin="round"/>
<path d="M14.1984 9.69556H10.4337V12.3042H14.1984V9.69556Z" stroke="#778CA2" stroke-linecap="round" stroke-linejoin="round"/>
<path d="M14.1984 7.08691H10.4337V9.69559H14.1984V7.08691Z" stroke="#778CA2" stroke-linecap="round" stroke-linejoin="round"/>
<path d="M14.1984 12.3044H10.4337V14.9131H14.1984V12.3044Z" stroke="#778CA2" stroke-linecap="round" stroke-linejoin="round"/>
<path d="M14.1984 14.9131H10.4337V17.5218H14.1984V14.9131Z" stroke="#778CA2" stroke-linecap="round" stroke-linejoin="round"/>
</svg>
