<svg width="22" height="16" viewBox="0 0 22 16" fill="none" xmlns="http://www.w3.org/2000/svg">
<path d="M14.8867 12.0225C10.8696 10.4361 10.1308 9.76441 10 9.55514V9.07446C10.4554 8.55174 10.8129 7.87824 11.0425 7.10878C11.3351 6.84834 11.5299 6.48372 11.5856 6.08619C11.6423 5.67679 11.5518 5.27105 11.3296 4.92835V3.38853C11.3296 1.2346 10.0275 0 7.75606 0C5.51758 0 4.18162 1.26659 4.18162 3.38853V4.92927C3.95941 5.27196 3.86889 5.67496 3.92467 6.08437C3.98045 6.48189 4.1743 6.84651 4.46691 7.10878C4.69643 7.87824 5.05397 8.55174 5.50935 9.07446V9.55331C5.38682 9.74065 4.67997 10.4206 0.620887 12.0243C0.243234 12.1742 0 12.5379 0 12.9501V14.8344C0 15.3827 0.43709 15.8278 0.973851 15.8278H14.5337C15.0714 15.8278 15.5076 15.3827 15.5076 14.8344V12.9501C15.5085 12.5416 15.2588 12.1687 14.8867 12.0225ZM14.5941 14.8326C14.5941 14.8801 14.563 14.9121 14.5346 14.9121H0.974766C0.945505 14.9121 0.915329 14.8801 0.915329 14.8326L0.958306 12.8724C5.45905 11.095 6.23539 10.3374 6.40456 9.78269C6.41736 9.73882 6.42376 9.69405 6.42376 9.64927V8.89626C6.42376 8.77837 6.37804 8.66597 6.29666 8.58007C5.85591 8.11949 5.51392 7.47706 5.30726 6.72314C5.27983 6.62262 5.21856 6.53398 5.13352 6.47275C4.96893 6.35486 4.85828 6.16661 4.82902 5.95825C4.79885 5.7435 4.85737 5.53058 4.99362 5.35969C5.05763 5.27927 5.09237 5.17875 5.09237 5.07548V3.38853C5.09237 1.7692 6.01227 0.913843 7.7524 0.913843C9.51722 0.913843 10.4115 1.74635 10.4115 3.38853V5.07457C10.4115 5.17783 10.4463 5.27836 10.5103 5.35877C10.6465 5.53058 10.706 5.7435 10.6758 5.96008C10.6465 6.16844 10.5359 6.35578 10.3722 6.47366C10.2872 6.53489 10.225 6.62353 10.1975 6.72406C9.99181 7.47889 9.64981 8.12041 9.20907 8.58098C9.12768 8.66597 9.08196 8.77929 9.08196 8.89717V9.65018C9.08196 9.69496 9.08836 9.73974 9.10208 9.7836C9.27125 10.3374 10.0485 11.0959 14.5483 12.8733L14.5913 12.9492V14.8326H14.5941Z" fill="#38888B"/>
<path d="M21.3004 12.2757C20.2534 11.8764 19.1579 11.6689 18.2774 11.5017C17.6812 11.3893 16.8737 11.2358 16.6945 11.1225V10.7039C18.6815 10.6125 19.5301 9.97742 19.6261 9.90066C19.7441 9.80562 19.8072 9.65758 19.7953 9.50679C19.7834 9.35601 19.6965 9.22076 19.563 9.14583C19.1369 8.9064 18.7071 6.99556 18.5764 5.39816C18.5764 3.75599 17.6592 2.29567 16.1834 1.58927C14.819 0.936787 13.3221 1.09305 12.1828 2.00872C11.9862 2.16682 11.9551 2.45468 12.1133 2.65115C12.2724 2.84763 12.5586 2.8787 12.7561 2.72061C13.6138 2.03066 14.7459 1.91277 15.7883 2.41264C16.9441 2.96552 17.662 4.10965 17.6638 5.43472C17.7232 6.17767 17.95 8.33159 18.612 9.41176C18.1786 9.58539 17.4123 9.7974 16.2364 9.80014C15.984 9.80105 15.7801 10.0058 15.7801 10.2571V11.2431C15.7801 11.2897 15.7874 11.3363 15.8011 11.3802C15.9968 11.9998 16.8362 12.1588 18.1073 12.3991C18.9522 12.559 20.0029 12.7582 20.995 13.1585L20.963 14.9113H16.9606C16.7082 14.9113 16.5034 15.116 16.5034 15.3682C16.5034 15.6204 16.7082 15.8251 16.9606 15.8251H20.963C21.4842 15.8251 21.9094 15.4002 21.9094 14.8784V13.1585C21.9103 12.7701 21.6662 12.4146 21.3004 12.2757Z" fill="#38888B"/>
</svg>
